<?xml version="1.0" encoding="utf-8"?>
<!-- Generator: Adobe Illustrator 22.1.0, SVG Export Plug-In . SVG Version: 6.00 Build 0)  -->
<svg version="1.1" id="Layer_1" xmlns="http://www.w3.org/2000/svg" xmlns:xlink="http://www.w3.org/1999/xlink" x="0px" y="0px"
	 viewBox="0 0 230 90" style="enable-background:new 0 0 230 90;" xml:space="preserve">
<style type="text/css">
	.st0{fill:#004712;}
	.st1{fill:#00B259;}
</style>
<g id="Linode">
	<g>
		<g>
			<path d="M93.8,27.8l5.8-1.4v28c0,3.1,0.9,4.9,2.7,5.5c-0.9,1.7-2.4,2.6-4.6,2.6c-2.6,0-4-1.8-4-5.5L93.8,27.8L93.8,27.8z"/>
			<path d="M108.4,62V41.8h-3.2V37h9.1v25H108.4z M111.4,27.4c0.9,0,1.7,0.3,2.4,1c0.7,0.7,1,1.5,1,2.4s-0.3,1.7-1,2.4s-1.5,1-2.4,1
				s-1.7-0.3-2.4-1c-0.7-0.7-1-1.5-1-2.4s0.3-1.7,1-2.4C109.7,27.7,110.5,27.4,111.4,27.4z"/>
			<path d="M137.1,62V47.6c0-2.1-0.4-3.7-1.2-4.6c-0.8-1-2.1-1.5-4-1.5c-0.9,0-1.8,0.2-2.7,0.7c-1,0.5-1.7,1.1-2.3,1.8v18h-5.8V37.1
				h4.2l1.1,2.3c1.6-1.9,3.9-2.8,7-2.8c3,0,5.3,0.9,7,2.7s2.6,4.3,2.6,7.4V62H137.1z"/>
			<path d="M147.5,49.5c0-3.8,1.1-6.9,3.3-9.3c2.2-2.4,5.1-3.6,8.7-3.6c3.8,0,6.7,1.1,8.8,3.4c2.1,2.3,3.1,5.4,3.1,9.4
				s-1.1,7.1-3.2,9.5c-2.1,2.3-5,3.5-8.8,3.5s-6.7-1.2-8.8-3.5C148.6,56.5,147.5,53.4,147.5,49.5z M153.6,49.5c0,5.5,2,8.2,5.9,8.2
				c1.8,0,3.2-0.7,4.3-2.1c1.1-1.4,1.6-3.5,1.6-6.1c0-5.4-2-8.1-5.9-8.1c-1.8,0-3.3,0.7-4.3,2.1C154.1,44.9,153.6,46.9,153.6,49.5z"
				/>
			<path d="M192.1,62v-1.5c-0.5,0.5-1.3,1-2.4,1.4c-1.1,0.4-2.3,0.6-3.6,0.6c-3.5,0-6.2-1.1-8.2-3.3s-3-5.3-3-9.2s1.1-7.1,3.4-9.6
				c2.3-2.5,5.1-3.7,8.6-3.7c1.9,0,3.6,0.4,5.2,1.2v-10l5.8-1.4V62H192.1z M192.1,43c-1.2-1-2.5-1.5-3.9-1.5c-2.3,0-4.1,0.7-5.4,2.1
				c-1.3,1.4-1.9,3.5-1.9,6.1c0,5.2,2.5,7.8,7.5,7.8c0.6,0,1.2-0.2,2.1-0.5c0.8-0.3,1.3-0.7,1.6-1L192.1,43L192.1,43z"/>
			<path d="M226,51.3h-17.8c0.1,2,0.8,3.5,2,4.6c1.3,1.1,2.9,1.7,5.1,1.7c2.6,0,4.7-0.7,6-2.1l2.3,4.4c-2,1.7-5.1,2.5-9.2,2.5
				c-3.8,0-6.8-1.1-9-3.3s-3.3-5.3-3.3-9.3c0-3.9,1.2-7.1,3.6-9.5c2.4-2.4,5.3-3.6,8.7-3.6c3.6,0,6.5,1.1,8.7,3.2
				c2.2,2.2,3.3,4.9,3.3,8.2C226.5,48.8,226.3,49.8,226,51.3z M208.4,46.9h12.2c-0.4-3.6-2.4-5.5-6-5.5
				C211.3,41.5,209.2,43.3,208.4,46.9z"/>
		</g>
		<g>
			<path class="st0" d="M65.9,47.4l-1,11.5l-3.3-2.3l0.4-5.8l0,0l0,0c0,0,0,0,0-0.1l0,0v-0.1l0,0l-0.1-0.1l0,0c0,0,0,0-0.1-0.1
				l-7.1-4.7l0.1-5.1L65.9,47.4z M48.5,59.9L43.4,56v0.9c0,0.2-0.1,0.4-0.2,0.5L39.4,60l4.2,3.4l0,0l0,0c0,0,0,0,0.1,0.1l0,0
				c0,0,0,0,0,0.1l0,0v0.1l0,0l0.2,4l4.7,3.9L48.5,59.9z M16.4,64.9l2.4,11.5l9.9,10.5L27,75.3L16.4,64.9z M25.7,66.6l-2.4-16.1
				l-12-10l3.2,15.6L25.7,66.6z M21.9,40.6l-3.3-22.8L4.8,9.2l4.5,21.5L21.9,40.6z"/>
			<path class="st1" d="M75.7,41.2l-1.5,10.9L66,58.7l1-11.2L75.7,41.2z M49.6,59.9l0.1,11.8l10.5-8.4l0.7-11.5L49.6,59.9z
				 M42.8,64.7L28,75.3l1.8,12.2l13.4-10.7L42.8,64.7z M42.4,56.7l-0.7-16l-17.3,9.9l2.4,16.6L42.4,56.7z M41.3,31.4L40.4,9.8
				l-20.8,8L23,41L41.3,31.4z"/>
			<path d="M76.9,40L76.9,40C76.9,39.9,76.9,39.9,76.9,40c0-0.1,0-0.1,0-0.2l0,0c0,0,0-0.1-0.1-0.1l0,0c0,0-0.1,0-0.1-0.1l0,0l0,0
				l0,0l-12-6.7c-0.2-0.1-0.4-0.1-0.5,0L54,39.1l0,0c0,0,0,0-0.1,0c0,0,0,0,0,0.1c0,0,0,0,0,0.1c0,0,0,0,0,0.1c0,0,0,0,0,0.1v0.1
				c0,0,0,0,0,0.1l-0.1,5.4l-4.1-2.7c-0.2-0.1-0.4-0.1-0.6,0L43,45.8l-0.3-6l0,0v-0.1c0,0,0,0,0-0.1c0,0,0,0,0-0.1c0,0,0,0,0-0.1
				c0,0,0,0,0-0.1c0,0,0,0-0.1,0l0,0l-6.2-4.1l5.8-3c0.2-0.1,0.3-0.3,0.3-0.5L41.4,9V8.9l0,0c0,0,0-0.1-0.1-0.1l0,0
				c0,0,0-0.1-0.1-0.1l0,0l0,0l0,0l0,0L25.5,1.1C25.4,1,25.3,1,25.2,1L3.9,7.6l0,0l0,0c0,0-0.1,0-0.1,0.1l0,0l0,0c0,0-0.1,0-0.1,0.1
				c0,0,0,0,0,0.1c0,0,0,0,0,0.1v0.1c0,0,0,0,0,0.1l0,0v0.1c0,0,0,0,0,0.1l0,0l4.7,22.9c0,0.1,0.1,0.2,0.2,0.3l6.4,5l-4.7,2.2l0,0
				l0,0l0,0c0,0-0.1,0-0.1,0.1l0,0c0,0,0,0.1-0.1,0.1l0,0v0.1l0,0l0,0v0.1l0,0l3.6,17.2c0,0.1,0.1,0.2,0.2,0.3l4.5,4.2l-3,1.8
				l-0.1,0.1l0,0c0,0,0,0.1-0.1,0.1l0,0V63c0,0.1,0,0.1,0,0.2l0,0L18,76.5c0,0.1,0.1,0.2,0.1,0.3l10.9,12c0,0,0,0,0.1,0l0,0
				c0,0,0.1,0,0.1,0.1l0,0l0,0c0.1,0,0.1,0,0.2,0s0.1,0,0.2,0l0,0l0,0c0,0,0,0,0.1,0l0,0l14.4-11.5c0.1-0.1,0.2-0.3,0.2-0.4L44,69.1
				l4.8,4l0,0c0,0,0.1,0,0.1,0.1l0,0l0,0c0.1,0,0.1,0,0.2,0c0.1,0,0.1,0,0.2,0l0,0l0,0c0,0,0,0,0.1,0l0,0L61,64
				c0.1-0.1,0.2-0.2,0.2-0.4l0.4-5.8l3.5,2.4l0,0l0,0c0,0,0,0,0.1,0l0,0h0.1c0.1,0,0.1,0,0.2,0l0,0l0,0c0,0,0.1,0,0.1-0.1l0,0
				l9.4-7.5c0.1-0.1,0.2-0.2,0.2-0.3L76.9,40C76.9,40.1,76.9,40.1,76.9,40L76.9,40z M66,58.7l1-11.2l8.8-6.3l-1.5,10.9L66,58.7z
				 M61.6,56.6l0.4-5.8l0,0l0,0c0,0,0,0,0-0.1l0,0v-0.1l0,0l-0.1-0.1l0,0c0,0,0,0-0.1-0.1l-7.1-4.7l0.1-5.1l11.1,6.9l-1,11.5
				L61.6,56.6z M60.1,63.3l-10.5,8.4l-0.1-11.8l11.3-8.1L60.1,63.3z M43.3,76.8L29.8,87.5L28,75.3l14.7-10.5L43.3,76.8z M18.7,76.4
				l-2.4-11.5L27,75.3l1.7,11.6L18.7,76.4z M18.5,17.8l3.3,22.8L9.3,30.7L4.8,9.2L18.5,17.8z M40.4,9.8l0.9,21.6L23,41l-3.4-23.2
				L40.4,9.8z M42.4,56.7L26.8,67.1l-2.4-16.6l17.3-9.9L42.4,56.7z M23.3,50.6l2.4,16.1L14.5,56.1l-3.2-15.6L23.3,50.6z M43.8,63.7
				L43.8,63.7C43.8,63.6,43.8,63.6,43.8,63.7L43.8,63.7v-0.2l0,0c0,0,0,0-0.1-0.1l0,0l0,0L39.5,60l3.8-2.6c0.2-0.1,0.2-0.3,0.2-0.5
				V56l5.1,3.9l0.1,11.8L44,67.8L43.8,63.7z"/>
		</g>
	</g>
</g>
</svg>
